<?xml version="1.0" encoding="utf-8"?>
<!-- Generator: Adobe Illustrator 16.0.0, SVG Export Plug-In . SVG Version: 6.00 Build 0)  -->
<!DOCTYPE svg PUBLIC "-//W3C//DTD SVG 1.1//EN" "http://www.w3.org/Graphics/SVG/1.1/DTD/svg11.dtd">
<svg version="1.1" id="Layer_1" xmlns="http://www.w3.org/2000/svg" xmlns:xlink="http://www.w3.org/1999/xlink" x="0px" y="0px"
	 width="38.808px" height="57.185px" viewBox="0 0 38.808 57.185" enable-background="new 0 0 38.808 57.185" xml:space="preserve">
<g>
	<ellipse fill="#FFFFFF" cx="19.663" cy="18.325" rx="14.292" ry="14.708"/>
	<path fill="#6FCF97" d="M19.499,0.002c9.054,0.001,16.9,6.292,18.885,15.101c0.767,3.403,0.454,6.711-0.612,10.001
		c-1.384,4.273-3.262,8.327-5.338,12.295c-3.022,5.777-6.351,11.37-10.17,16.659c-0.688,0.952-1.458,1.848-2.234,2.731
		c-0.461,0.524-0.651,0.532-1.1-0.001c-0.993-1.182-2-2.362-2.878-3.628c-4.988-7.189-9.363-14.732-12.87-22.76
		c-1.12-2.563-2.085-5.185-2.688-7.926c-0.777-3.533-0.355-6.976,1.008-10.274c2.549-6.164,7.115-10.06,13.584-11.7
		C16.53,0.132,18.006-0.02,19.499,0.002z M19.493,5.497c-6.416-0.007-11.627,5.18-11.647,11.59
		c-0.02,6.405,5.186,11.642,11.583,11.654c6.458,0.013,11.681-5.185,11.684-11.627C31.115,10.711,25.907,5.503,19.493,5.497z"/>
	<g>
		<path fill="#76C695" d="M15.639,7.89c0.755,0.506,1.533,0.979,2.251,1.539c0.353,0.275,0.69,0.569,1.041,0.846
			c0.593,0.468,0.807,1.161,1.087,1.814c0.748,1.745,1.479,3.497,2.243,5.234c0.3,0.683,0.618,1.36,0.901,2.048
			c0.414,1.007,0.841,2.009,1.224,3.029c0.1,0.266-0.006,0.544-0.031,0.813c-0.019,0.206,0.056,0.458-0.104,0.618
			c-0.167,0.167-0.412-0.028-0.646,0.064c0.127,0.108,0.246,0.199,0.352,0.303c0.509,0.5,0.51,1.083,0.007,1.582
			c-0.024,0.024-0.053,0.044-0.079,0.066c-0.353,0.302-0.353,0.301,0.042,0.579c0.151,0.107,0.302,0.216,0.472,0.337
			c-0.126,0.073-0.201-0.009-0.275-0.04c-0.413-0.169-0.805-0.391-1.239-0.51c-0.618-0.169-1.208-0.122-1.749,0.247
			c-0.248,0.169-0.516,0.293-0.793,0.402c-0.052,0-0.104,0-0.155,0c-0.007-0.14-0.081-0.194-0.221-0.193
			c-0.271,0.001-0.51,0.119-0.761,0.193c-0.138,0-0.276,0-0.414,0c-0.075-0.067-0.143-0.146-0.226-0.201
			c-0.26-0.173-0.177-0.417-0.134-0.644c0.049-0.257,0.244-0.393,0.482-0.44c0.237-0.047,0.457,0.006,0.617,0.26
			c-0.212,0.013-0.428-0.07-0.578,0.115c-0.029-0.021-0.031-0.043-0.006-0.069c0.024-0.054,0.073-0.131-0.051-0.095
			c-0.165,0.048-0.288,0.316-0.237,0.493c0.06,0.21,0.262,0.369,0.44,0.305c0.445-0.16,0.88-0.242,1.309,0.04
			c0.044,0.029,0.083,0.003,0.119-0.021c0.043-0.028,0.087-0.056,0.126-0.089c0.131-0.111,0.326-0.201,0.375-0.341
			c0.061-0.176-0.222-0.223-0.281-0.379c-0.161-0.43-0.548-0.549-0.924-0.692c-0.284-0.108-0.548-0.25-0.712-0.525
			c-0.034-0.057-0.101-0.142-0.161-0.074c-0.175,0.197-0.287,0.028-0.429-0.043c-0.367-0.183-0.722-0.408-1.158-0.384
			c-0.167,0.009-0.248-0.102-0.307-0.231c-0.11-0.242-0.221-0.483-0.321-0.729c-0.13-0.32-0.291-0.623-0.49-0.905
			c-0.25-0.354-0.332-0.75-0.291-1.175c0.018-0.178,0.072-0.344,0.267-0.402c0.236-0.071,0.212-0.233,0.151-0.406
			c-0.04-0.113-0.105-0.213-0.132-0.334c-0.065-0.294-0.016-0.451,0.192-0.545c0.234-0.106,0.542-0.037,0.669,0.169
			c0.132,0.212,0.156,0.452,0.128,0.697c-0.007,0.061-0.025,0.119-0.098,0.136c-0.138,0.032-0.089,0.147-0.1,0.233
			c-0.015,0.122,0.091,0.142,0.167,0.155c0.123,0.022,0.282,0.151,0.361,0.052c0.135-0.17,0.322-0.332,0.349-0.56
			c0.043-0.363,0.072-0.731,0.066-1.096c-0.005-0.328,0.059-0.599,0.365-0.761c0.122-0.064,0.114-0.123,0.06-0.242
			c-0.335-0.739-0.725-1.45-1.058-2.193c-0.984-2.192-1.339-4.53-1.759-6.858c-0.048-0.27-0.09-0.541-0.143-0.81
			c-0.028-0.144-0.01-0.271,0.093-0.379C15.57,7.89,15.604,7.89,15.639,7.89z"/>
		<path fill="#FBFDFC" d="M19.206,26.86c0.342-0.245,0.708-0.333,1.117-0.187c0.014,0.111-0.169,0.069-0.135,0.187
			C19.86,26.86,19.533,26.86,19.206,26.86z"/>
		<path fill="#F3F9F5" d="M11.71,16.987c0.065,0.05,0.051,0.122,0.051,0.189c0.001,0.787,0,1.574,0,2.361
			c0,0.067,0.014,0.139-0.051,0.189C11.71,18.813,11.71,17.9,11.71,16.987z"/>
		<path fill="#83CA9E" d="M18.949,25.881c0.002,0.023,0.004,0.045,0.006,0.069c-0.03,0.366-0.002,0.397,0.336,0.383
			c0.049-0.019,0.071-0.003,0.066,0.05c-0.163,0.05-0.334,0.119-0.453-0.07C18.81,26.165,18.793,26.011,18.949,25.881z"/>
		<path fill="#8ACCA3" d="M19.357,26.383c-0.022-0.017-0.044-0.033-0.066-0.05c0.097-0.066,0.208-0.081,0.322-0.089
			c0.038,0.06-0.019,0.07-0.049,0.095C19.495,26.354,19.426,26.369,19.357,26.383z"/>
		<path fill="#CDE8D7" d="M19.564,26.339c0.016-0.032,0.032-0.063,0.048-0.095c0.071-0.006,0.131,0.008,0.18,0.095
			C19.707,26.339,19.636,26.339,19.564,26.339z"/>
		<path fill="#FFFFFF" d="M20.55,14.236c0.28,0.519,0.466,1.079,0.714,1.612c0.064,0.14,0.12,0.283,0.177,0.426
			c0.034,0.084,0.093,0.172-0.01,0.253c-0.13-0.049-0.266-0.084-0.38-0.167c-0.067-0.048-0.143-0.082-0.217-0.117
			c-0.207-0.129-0.467-0.156-0.648-0.336c-0.765-0.339-1.56-0.585-2.372-0.774c-0.224-0.052-0.339-0.149-0.397-0.366
			c-0.117-0.439-0.256-0.873-0.379-1.311c-0.075-0.267-0.053-0.284,0.211-0.221c0.786,0.186,1.555,0.43,2.323,0.677
			c0.098,0.031,0.198,0.055,0.296,0.082c0.097,0.013,0.197,0.003,0.289,0.046C20.29,14.102,20.453,14.102,20.55,14.236z"/>
		<path fill="#FFFFFF" d="M21.075,16.315c0.092,0.115,0.303,0.031,0.356,0.212c0.109,0.067,0.191,0.154,0.243,0.277
			c0.249,0.598,0.505,1.192,0.755,1.789c0.029,0.068,0.115,0.148-0.012,0.211c-0.109-0.004-0.193-0.066-0.277-0.125
			c-0.058-0.051-0.11-0.109-0.179-0.146c-0.069-0.038-0.139-0.075-0.206-0.119c-0.162-0.112-0.358-0.173-0.484-0.335
			c-0.861-0.499-1.776-0.857-2.747-1.072c-0.135-0.03-0.2-0.092-0.261-0.207c-0.234-0.44-0.417-0.903-0.607-1.362
			c-0.022-0.054-0.077-0.115-0.035-0.168c0.055-0.07,0.127-0.004,0.19,0.008c0.794,0.154,1.553,0.429,2.319,0.68
			c0.253,0.037,0.469,0.169,0.698,0.269C20.908,16.262,20.986,16.302,21.075,16.315z"/>
		<path fill="#FFFFFF" d="M18.039,21.636c0.707,0.232,1.354,0.005,1.995-0.256c0.148-0.06,0.227-0.033,0.31,0.106
			c0.402,0.67,0.812,1.334,1.225,1.997c0.078,0.125,0.073,0.205-0.041,0.306c-0.237,0.211-0.468,0.432-0.648,0.697
			c-0.074,0.109-0.146,0.093-0.236,0.037c-0.132-0.083-0.26-0.167-0.362-0.288c-0.452-0.532-0.974-0.958-1.664-1.154
			c-0.379-0.107-0.612-0.362-0.642-0.776c-0.012-0.162-0.035-0.326-0.077-0.482C17.861,21.682,17.892,21.626,18.039,21.636z"/>
		<path fill="#FFFFFF" d="M19.471,11.916c0.146,0.008,0.161,0.132,0.205,0.231c0.276,0.632,0.552,1.264,0.828,1.896
			c0.036,0.088,0,0.139-0.087,0.115s-0.176-0.048-0.258-0.089c-0.09-0.016-0.167-0.055-0.235-0.117
			c-0.92-0.329-1.845-0.644-2.792-0.887c-0.128-0.033-0.219-0.077-0.249-0.219c-0.102-0.496-0.202-0.991-0.317-1.484
			c-0.054-0.229,0.046-0.246,0.223-0.2c0.581,0.15,1.162,0.299,1.742,0.449c0.166-0.001,0.322,0.048,0.481,0.083
			c0.063,0.004,0.126,0.013,0.186,0.039C19.284,11.802,19.406,11.817,19.471,11.916z"/>
		<path fill="#FFFFFF" d="M19.208,11.768c-0.073-0.001-0.145-0.003-0.218-0.004c-0.085-0.126-0.268-0.074-0.357-0.194
			c-0.647-0.225-1.307-0.405-1.971-0.571c-0.13-0.033-0.18-0.083-0.201-0.216c-0.102-0.651-0.217-1.3-0.328-1.949
			c-0.01-0.056-0.056-0.12,0.011-0.162c0.05-0.031,0.095,0.013,0.138,0.042c0.922,0.613,1.85,1.216,2.633,2.012
			c0.287,0.292,0.434,0.653,0.589,1.016c0.022,0.052,0.023,0.101-0.041,0.126C19.377,11.837,19.275,11.847,19.208,11.768z"/>
		<path fill="#FFFFFF" d="M22.923,21.906c-0.699-0.541-1.461-0.968-2.301-1.247c-0.16-0.053-0.258-0.144-0.338-0.285
			c-0.246-0.432-0.501-0.857-0.762-1.302c0.226-0.056,0.399,0.031,0.573,0.086c0.696,0.224,1.401,0.455,1.939,0.971
			c0.621,0.595,1.201,1.233,1.788,1.862c0.177,0.19,0.29,0.423,0.251,0.702c-0.008,0.062-0.033,0.095-0.098,0.089
			c-0.209,0.004-0.283-0.199-0.435-0.281c-0.056-0.07-0.1-0.15-0.173-0.205c-0.07-0.054-0.145-0.101-0.208-0.163
			C23.081,22.057,22.969,22.016,22.923,21.906z"/>
		<path fill="#FFFFFF" d="M23.547,22.466c0.181,0.053,0.269,0.233,0.428,0.316c0.183,0.223,0.02,0.463,0.03,0.695
			c0.004,0.092-0.102,0.075-0.166,0.071c-0.523-0.029-1.045-0.063-1.569-0.091c-0.084-0.004-0.118-0.054-0.155-0.114
			c-0.516-0.832-1.032-1.663-1.582-2.549c0.891,0.254,1.616,0.701,2.335,1.161c0.108,0.032,0.202,0.09,0.283,0.169
			c0.069,0.053,0.138,0.107,0.209,0.159C23.435,22.332,23.501,22.389,23.547,22.466z"/>
		<path fill="#FFFFFF" d="M22.145,18.639c0.091,0.054,0.203,0.074,0.271,0.167c0.198,0.132,0.251,0.354,0.339,0.552
			c0.193,0.436,0.376,0.875,0.56,1.313c0.035,0.083,0.125,0.199-0.074,0.201c-0.083-0.021-0.131-0.074-0.146-0.158
			c-0.033-0.039-0.059-0.088-0.1-0.114c-0.725-0.451-1.282-1.089-1.873-1.687c-0.53-0.536-1.156-0.792-1.904-0.732
			c-0.157,0.013-0.237-0.04-0.303-0.169c-0.14-0.271-0.288-0.539-0.454-0.848c0.553,0.075,1.031,0.236,1.5,0.42
			c0.422,0.167,0.833,0.363,1.248,0.547c0.209,0.024,0.356,0.175,0.535,0.26c0.065,0.046,0.141,0.074,0.206,0.12
			C22.019,18.548,22.082,18.595,22.145,18.639z"/>
		<path fill="#FFFFFF" d="M20.036,20.996c-0.595-0.219-1.155-0.405-1.531-0.848c-0.151-0.179-0.191-0.487-0.334-0.713
			c-0.004-0.006,0-0.017-0.001-0.025c-0.015-0.201,0.238-0.641,0.412-0.741c0.08-0.046,0.111-0.003,0.142,0.05
			C19.15,19.458,19.576,20.198,20.036,20.996z"/>
		<path fill="#FEFEFE" d="M21.347,19.517c-0.229-0.102-0.458-0.207-0.689-0.306c-0.338-0.146-0.686-0.274-1.054-0.313
			c-0.272-0.028-0.333-0.253-0.421-0.434c-0.061-0.125,0.093-0.082,0.151-0.087c0.681-0.068,1.207,0.244,1.67,0.699
			c0.13,0.127,0.256,0.259,0.385,0.389C21.375,19.482,21.361,19.5,21.347,19.517z"/>
		<path fill="#FDFEFD" d="M18.271,20.249c0.427,0.403,0.925,0.63,1.435,0.844c-0.078,0.126-0.197,0.09-0.289,0.1
			c-0.428,0.046-0.853,0.027-1.269-0.103c-0.123-0.039-0.174-0.078-0.115-0.213C18.116,20.683,18.184,20.481,18.271,20.249z"/>
		<path fill="#FDFEFD" d="M21.977,25.753c-0.19,0.065-0.363,0.115-0.526,0.185c-0.091,0.04-0.14,0.011-0.2-0.048
			c-0.48-0.475-0.326-1.337,0.338-1.663c-0.179,0.285-0.373,0.533-0.266,0.862C21.427,25.407,21.708,25.555,21.977,25.753z"/>
		<path fill="#F1F8F3" d="M23.096,20.714c0.068,0.035,0.114,0.09,0.146,0.158c0.14,0.139,0.321,0.25,0.338,0.429
			c-0.203-0.171-0.429-0.362-0.696-0.587C22.997,20.714,23.046,20.714,23.096,20.714z"/>
		<path fill="#86CBA0" d="M20.861,16.248c-0.262-0.05-0.497-0.171-0.731-0.291c0.019-0.017,0.037-0.033,0.056-0.05
			c0.234,0.083,0.478,0.148,0.67,0.319L20.861,16.248z"/>
		<path fill="#82CA9D" d="M21.742,18.423c-0.177-0.097-0.354-0.194-0.532-0.292c0.02-0.018,0.041-0.035,0.061-0.053
			c0.187,0.08,0.363,0.178,0.525,0.301C21.785,18.403,21.767,18.417,21.742,18.423z"/>
		<path fill="#85CBA0" d="M18.633,11.569c0.119,0.066,0.31-0.003,0.357,0.194c-0.153-0.05-0.306-0.101-0.458-0.151
			C18.565,11.598,18.599,11.583,18.633,11.569z"/>
		<path fill="#78C697" d="M20.136,14.048c0.088,0.022,0.18,0.037,0.263,0.071c0.09,0.037,0.102-0.007,0.104-0.076
			c0.067,0.052,0.039,0.126,0.046,0.193c-0.139-0.048-0.287-0.07-0.413-0.153C20.137,14.072,20.137,14.06,20.136,14.048z"/>
		<path fill="#8DCEA6" d="M23.134,22.156c-0.098-0.056-0.194-0.112-0.267-0.201c0.019-0.017,0.037-0.033,0.055-0.049
			c0.105,0.043,0.192,0.113,0.271,0.194C23.186,22.132,23.166,22.15,23.134,22.156z"/>
		<path fill="#C4E4D0" d="M19.208,11.768c0.089,0.022,0.185,0.03,0.255,0.1c0.003,0.017,0.005,0.033,0.008,0.049
			C19.396,11.845,19.235,11.925,19.208,11.768z"/>
		<path fill="#80C99D" d="M20.136,14.048c0,0.012,0.001,0.023,0,0.035c-0.101,0.004-0.188-0.034-0.269-0.088
			c0.018-0.014,0.037-0.028,0.056-0.042C19.995,13.984,20.065,14.017,20.136,14.048z"/>
		<path fill="#8CCDA5" d="M20.861,16.248l-0.005-0.022c0.093-0.02,0.159,0.027,0.219,0.089
			C20.986,16.348,20.912,16.334,20.861,16.248z"/>
		<path fill="#77C696" d="M21.742,18.423c0.018-0.015,0.037-0.029,0.055-0.043c0.065,0.038,0.131,0.075,0.197,0.112
			c0.011,0.045,0.004,0.072-0.05,0.048C21.875,18.501,21.809,18.462,21.742,18.423z"/>
		<path fill="#98D2AE" d="M21.943,18.54c0.017-0.016,0.034-0.032,0.05-0.048c0.076,0.022,0.133,0.065,0.152,0.146
			C22.064,18.634,21.996,18.602,21.943,18.54z"/>
		<path fill="#88CCA1" d="M23.134,22.156c0.02-0.019,0.04-0.037,0.059-0.055c0.067,0.047,0.147,0.081,0.18,0.166
			c0,0.018-0.009,0.027-0.027,0.028C23.254,22.281,23.199,22.212,23.134,22.156z"/>
		<path fill="#8BCDA4" d="M23.346,22.294c0.004-0.014,0.014-0.023,0.027-0.028c0.103,0.028,0.179,0.078,0.173,0.2
			C23.473,22.417,23.382,22.387,23.346,22.294z"/>
	</g>
</g>
</svg>
