<?xml version="1.0" encoding="utf-8"?>
<!-- Generator: Adobe Illustrator 16.0.0, SVG Export Plug-In . SVG Version: 6.00 Build 0)  -->
<!DOCTYPE svg PUBLIC "-//W3C//DTD SVG 1.1//EN" "http://www.w3.org/Graphics/SVG/1.1/DTD/svg11.dtd">
<svg version="1.1" id="Layer_1" xmlns="http://www.w3.org/2000/svg" xmlns:xlink="http://www.w3.org/1999/xlink" x="0px" y="0px"
	 width="400px" height="400px" viewBox="0 0 400 400" enable-background="new 0 0 400 400" xml:space="preserve">
<g>
	<path fill-rule="evenodd" clip-rule="evenodd" fill="#6FCF97" d="M205.508,21.394c55.443,0.01,103.49,38.528,115.648,92.471
		c4.697,20.842,2.779,41.1-3.746,61.247c-8.475,26.167-19.977,50.994-32.689,75.293c-18.506,35.374-38.889,69.622-62.277,102.012
		c-4.211,5.831-8.928,11.318-13.684,16.725c-2.822,3.21-3.988,3.259-6.734-0.009c-6.08-7.236-12.246-14.463-17.624-22.216
		c-30.545-44.029-57.334-90.216-78.813-139.377c-6.859-15.699-12.769-31.752-16.462-48.537c-4.761-21.636-2.178-42.72,6.174-62.919
		c15.608-37.747,43.573-61.604,83.188-71.649C187.326,22.193,196.371,21.262,205.508,21.394z M205.475,55.043
		c-39.289-0.04-71.205,31.72-71.326,70.978c-0.121,39.221,31.756,71.294,70.933,71.369c39.549,0.076,71.533-31.754,71.547-71.202
		C276.643,86.972,244.75,55.083,205.475,55.043z"/>
	<g>
		<path fill-rule="evenodd" clip-rule="evenodd" fill="#76C695" d="M181.873,69.698c4.625,3.1,9.39,5.995,13.788,9.423
			c2.159,1.683,4.225,3.484,6.373,5.182c3.628,2.868,4.938,7.11,6.653,11.109c4.581,10.684,9.06,21.413,13.737,32.054
			c1.837,4.179,3.782,8.33,5.515,12.54c2.535,6.164,5.15,12.304,7.496,18.547c0.612,1.63-0.039,3.335-0.19,4.975
			c-0.115,1.26,0.342,2.805-0.635,3.787c-1.019,1.024-2.522-0.17-3.96,0.39c0.779,0.666,1.508,1.219,2.155,1.855
			c3.117,3.063,3.125,6.628,0.045,9.689c-0.149,0.148-0.326,0.267-0.486,0.404c-2.159,1.846-2.157,1.844,0.26,3.543
			c0.929,0.653,1.85,1.319,2.893,2.063c-0.772,0.445-1.229-0.057-1.688-0.244c-2.53-1.034-4.927-2.393-7.584-3.121
			c-3.785-1.037-7.396-0.744-10.709,1.511c-1.518,1.033-3.16,1.795-4.857,2.461c-0.316,0-0.634,0-0.95,0
			c-0.045-0.86-0.493-1.188-1.354-1.185c-1.662,0.007-3.123,0.728-4.659,1.185c-0.844,0-1.688,0-2.532,0
			c-0.458-0.415-0.873-0.894-1.382-1.231c-1.592-1.056-1.085-2.554-0.82-3.94c0.302-1.574,1.497-2.407,2.956-2.695
			c1.451-0.287,2.799,0.038,3.779,1.592c-1.302,0.079-2.619-0.43-3.538,0.702c-0.175-0.126-0.188-0.266-0.037-0.42
			c0.147-0.33,0.45-0.804-0.308-0.584c-1.009,0.292-1.765,1.936-1.455,3.019c0.369,1.288,1.605,2.259,2.694,1.87
			c2.729-0.977,5.393-1.484,8.018,0.242c0.27,0.177,0.505,0.021,0.725-0.124c0.264-0.174,0.532-0.345,0.772-0.547
			c0.805-0.678,1.995-1.23,2.293-2.09c0.375-1.08-1.359-1.366-1.719-2.322c-0.987-2.635-3.357-3.363-5.658-4.239
			c-1.74-0.662-3.355-1.53-4.362-3.219c-0.207-0.348-0.617-0.868-0.987-0.454c-1.072,1.205-1.754,0.174-2.626-0.262
			c-2.244-1.122-4.418-2.501-7.089-2.354c-1.026,0.057-1.515-0.623-1.879-1.419c-0.676-1.478-1.353-2.956-1.966-4.46
			c-0.798-1.96-1.782-3.814-3.001-5.54c-1.532-2.17-2.035-4.594-1.78-7.195c0.107-1.089,0.444-2.106,1.634-2.464
			c1.45-0.436,1.301-1.425,0.925-2.489c-0.244-0.689-0.645-1.305-0.808-2.045c-0.396-1.801-0.097-2.76,1.176-3.336
			c1.434-0.649,3.315-0.224,4.099,1.034c0.81,1.298,0.955,2.767,0.787,4.267c-0.042,0.374-0.155,0.726-0.599,0.831
			c-0.841,0.198-0.545,0.905-0.61,1.429c-0.093,0.747,0.556,0.868,1.027,0.953c0.753,0.136,1.729,0.922,2.211,0.316
			c0.826-1.041,1.969-2.034,2.134-3.43c0.262-2.225,0.441-4.477,0.403-6.713c-0.034-2.007,0.361-3.665,2.236-4.66
			c0.744-0.395,0.699-0.756,0.369-1.484c-2.051-4.527-4.439-8.881-6.48-13.428c-6.028-13.427-8.201-27.741-10.772-41.996
			c-0.298-1.652-0.554-3.312-0.873-4.959c-0.171-0.882-0.063-1.655,0.569-2.321C181.451,69.698,181.662,69.698,181.873,69.698z"/>
		<path fill-rule="evenodd" clip-rule="evenodd" fill="#FBFDFC" d="M203.714,185.866c2.092-1.499,4.339-2.043,6.84-1.143
			c0.085,0.678-1.034,0.423-0.826,1.143C207.723,185.866,205.719,185.866,203.714,185.866z"/>
		<path fill-rule="evenodd" clip-rule="evenodd" fill="#F3F9F5" d="M157.816,125.408c0.398,0.306,0.313,0.748,0.314,1.157
			c0.004,4.82,0.003,9.641,0,14.461c0,0.41,0.083,0.851-0.314,1.157C157.816,136.592,157.816,131,157.816,125.408z"/>
		<path fill-rule="evenodd" clip-rule="evenodd" fill="#83CA9E" d="M202.14,179.873c0.013,0.14,0.024,0.279,0.037,0.42
			c-0.184,2.24-0.013,2.435,2.059,2.349c0.298-0.114,0.438-0.018,0.405,0.305c-0.997,0.307-2.046,0.726-2.774-0.429
			C201.291,181.606,201.188,180.664,202.14,179.873z"/>
		<path fill-rule="evenodd" clip-rule="evenodd" fill="#8ACCA3" d="M204.641,182.946c-0.135-0.102-0.27-0.203-0.404-0.305
			c0.594-0.406,1.275-0.497,1.969-0.543c0.236,0.365-0.112,0.43-0.297,0.58C205.485,182.767,205.063,182.857,204.641,182.946z"/>
		<path fill-rule="evenodd" clip-rule="evenodd" fill="#CDE8D7" d="M205.908,182.678c0.099-0.193,0.198-0.387,0.297-0.58
			c0.431-0.04,0.801,0.052,1.104,0.58C206.785,182.678,206.347,182.678,205.908,182.678z"/>
		<path fill-rule="evenodd" clip-rule="evenodd" fill="#FFFFFF" d="M211.946,108.56c1.713,3.178,2.854,6.61,4.37,9.876
			c0.396,0.853,0.735,1.732,1.085,2.605c0.207,0.519,0.566,1.058-0.062,1.549c-0.794-0.299-1.625-0.512-2.327-1.022
			c-0.413-0.293-0.873-0.501-1.33-0.714c-1.269-0.79-2.861-0.958-3.968-2.06c-4.681-2.074-9.553-3.582-14.526-4.739
			c-1.369-0.319-2.078-0.916-2.432-2.241c-0.719-2.69-1.571-5.344-2.322-8.026c-0.458-1.633-0.324-1.736,1.296-1.353
			c4.812,1.139,9.519,2.635,14.222,4.146c0.598,0.192,1.211,0.336,1.816,0.502c0.592,0.078,1.204,0.023,1.767,0.284
			C210.353,107.735,211.352,107.74,211.946,108.56z"/>
		<path fill-rule="evenodd" clip-rule="evenodd" fill="#FFFFFF" d="M215.159,121.293c0.565,0.703,1.854,0.19,2.181,1.297
			c0.669,0.415,1.171,0.947,1.484,1.7c1.525,3.659,3.092,7.301,4.625,10.956c0.175,0.416,0.705,0.908-0.074,1.292
			c-0.67-0.027-1.179-0.404-1.694-0.769c-0.354-0.313-0.673-0.671-1.099-0.897c-0.424-0.235-0.852-0.461-1.257-0.728
			c-0.989-0.683-2.193-1.056-2.964-2.054c-5.27-3.054-10.879-5.249-16.82-6.565c-0.828-0.184-1.223-0.567-1.595-1.269
			c-1.433-2.697-2.557-5.527-3.717-8.343c-0.135-0.328-0.469-0.705-0.216-1.029c0.337-0.433,0.778-0.026,1.165,0.049
			c4.863,0.942,9.508,2.63,14.198,4.167c1.551,0.224,2.875,1.035,4.275,1.644C214.139,120.964,214.619,121.21,215.159,121.293z"/>
		<path fill-rule="evenodd" clip-rule="evenodd" fill="#FFFFFF" d="M196.568,153.876c4.327,1.422,8.292,0.035,12.214-1.566
			c0.905-0.369,1.389-0.2,1.898,0.65c2.461,4.1,4.973,8.17,7.504,12.228c0.476,0.763,0.444,1.255-0.249,1.875
			c-1.451,1.296-2.869,2.647-3.969,4.269c-0.455,0.67-0.892,0.57-1.444,0.224c-0.806-0.504-1.594-1.025-2.217-1.759
			c-2.77-3.26-5.965-5.869-10.193-7.065c-2.323-0.657-3.747-2.217-3.928-4.757c-0.071-0.991-0.213-1.992-0.469-2.95
			C195.482,154.154,195.667,153.813,196.568,153.876z"/>
		<path fill-rule="evenodd" clip-rule="evenodd" fill="#FFFFFF" d="M205.341,94.353c0.893,0.05,0.987,0.811,1.251,1.414
			c1.692,3.869,3.382,7.74,5.072,11.61c0.221,0.54-0.003,0.851-0.534,0.707c-0.532-0.144-1.078-0.294-1.58-0.546
			c-0.549-0.097-1.026-0.337-1.438-0.713c-5.634-2.017-11.296-3.946-17.098-5.431c-0.782-0.2-1.343-0.468-1.521-1.339
			c-0.622-3.035-1.24-6.071-1.942-9.087c-0.327-1.403,0.284-1.503,1.366-1.224c3.556,0.921,7.114,1.833,10.671,2.749
			c1.012-0.008,1.971,0.292,2.944,0.511c0.39,0.028,0.774,0.079,1.136,0.238C204.196,93.655,204.941,93.745,205.341,94.353z"/>
		<path fill-rule="evenodd" clip-rule="evenodd" fill="#FFFFFF" d="M203.728,93.443c-0.444-0.009-0.889-0.018-1.333-0.027
			c-0.523-0.774-1.643-0.453-2.188-1.189c-3.963-1.375-8.006-2.479-12.071-3.496c-0.8-0.2-1.103-0.508-1.231-1.322
			c-0.625-3.986-1.328-7.959-2.006-11.937c-0.059-0.343-0.34-0.735,0.068-0.992c0.304-0.191,0.581,0.081,0.845,0.256
			c5.644,3.756,11.33,7.448,16.126,12.324c1.755,1.784,2.657,4.001,3.606,6.22c0.135,0.315,0.143,0.618-0.252,0.774
			C204.763,93.871,204.14,93.927,203.728,93.443z"/>
		<path fill-rule="evenodd" clip-rule="evenodd" fill="#FFFFFF" d="M226.478,155.529c-4.283-3.309-8.947-5.926-14.091-7.634
			c-0.979-0.325-1.58-0.882-2.072-1.748c-1.503-2.642-3.066-5.249-4.669-7.975c1.385-0.339,2.448,0.188,3.508,0.529
			c4.264,1.371,8.58,2.788,11.875,5.947c3.801,3.644,7.354,7.55,10.95,11.403c1.086,1.165,1.773,2.593,1.54,4.297
			c-0.052,0.38-0.201,0.583-0.601,0.547c-1.279,0.028-1.73-1.221-2.665-1.724c-0.34-0.428-0.61-0.916-1.061-1.252
			c-0.427-0.329-0.888-0.616-1.277-0.994C227.447,156.45,226.757,156.2,226.478,155.529z"/>
		<path fill-rule="evenodd" clip-rule="evenodd" fill="#FFFFFF" d="M230.299,158.959c1.11,0.325,1.644,1.429,2.619,1.937
			c1.118,1.365,0.121,2.836,0.184,4.253c0.024,0.565-0.624,0.458-1.016,0.437c-3.202-0.177-6.402-0.387-9.605-0.557
			c-0.516-0.027-0.725-0.332-0.95-0.696c-3.157-5.092-6.317-10.183-9.687-15.61c5.456,1.558,9.896,4.292,14.298,7.105
			c0.665,0.2,1.239,0.554,1.734,1.039c0.426,0.326,0.847,0.659,1.281,0.974C229.61,158.139,230.017,158.486,230.299,158.959z"/>
		<path fill-rule="evenodd" clip-rule="evenodd" fill="#FFFFFF" d="M221.713,135.521c0.561,0.33,1.245,0.455,1.662,1.018
			c1.212,0.808,1.542,2.171,2.079,3.384c1.182,2.665,2.305,5.354,3.43,8.043c0.211,0.504,0.768,1.219-0.454,1.229
			c-0.509-0.128-0.805-0.453-0.894-0.968c-0.202-0.235-0.362-0.538-0.614-0.695c-4.436-2.763-7.849-6.668-11.468-10.327
			c-3.244-3.28-7.077-4.853-11.66-4.486c-0.962,0.077-1.45-0.246-1.854-1.034c-0.854-1.663-1.76-3.299-2.777-5.193
			c3.388,0.459,6.314,1.444,9.182,2.573c2.586,1.018,5.099,2.225,7.644,3.349c1.28,0.146,2.181,1.069,3.276,1.593
			c0.397,0.283,0.86,0.456,1.262,0.734C220.943,134.967,221.325,135.25,221.713,135.521z"/>
		<path fill-rule="evenodd" clip-rule="evenodd" fill="#FFFFFF" d="M208.796,149.958c-3.646-1.341-7.075-2.479-9.376-5.195
			c-0.928-1.095-1.172-2.98-2.045-4.369c-0.024-0.038-0.002-0.104-0.006-0.156c-0.09-1.228,1.456-3.922,2.523-4.535
			c0.491-0.281,0.679-0.018,0.866,0.305C203.374,140.538,205.982,145.071,208.796,149.958z"/>
		<path fill-rule="evenodd" clip-rule="evenodd" fill="#FEFEFE" d="M216.826,140.897c-1.407-0.625-2.809-1.264-4.223-1.873
			c-2.074-0.893-4.197-1.678-6.453-1.913c-1.665-0.173-2.041-1.551-2.577-2.655c-0.371-0.763,0.567-0.498,0.923-0.533
			c4.173-0.416,7.39,1.493,10.229,4.279c0.797,0.782,1.572,1.587,2.358,2.381C216.998,140.688,216.912,140.792,216.826,140.897z"/>
		<path fill-rule="evenodd" clip-rule="evenodd" fill="#FDFEFD" d="M197.987,145.38c2.616,2.467,5.665,3.857,8.787,5.169
			c-0.479,0.771-1.206,0.549-1.771,0.61c-2.622,0.281-5.221,0.168-7.771-0.629c-0.752-0.236-1.065-0.477-0.707-1.302
			C197.042,148.038,197.454,146.803,197.987,145.38z"/>
		<path fill-rule="evenodd" clip-rule="evenodd" fill="#FDFEFD" d="M220.685,179.088c-1.164,0.399-2.222,0.7-3.224,1.13
			c-0.559,0.24-0.857,0.066-1.225-0.298c-2.939-2.91-1.998-8.186,2.069-10.183c-1.093,1.746-2.283,3.265-1.626,5.276
			C217.318,176.966,219.039,177.871,220.685,179.088z"/>
		<path fill-rule="evenodd" clip-rule="evenodd" fill="#F1F8F3" d="M227.536,148.228c0.414,0.216,0.697,0.552,0.894,0.968
			c0.857,0.853,1.964,1.534,2.069,2.628c-1.24-1.046-2.625-2.216-4.26-3.596C226.932,148.228,227.234,148.228,227.536,148.228z"/>
		<path fill-rule="evenodd" clip-rule="evenodd" fill="#86CBA0" d="M213.853,120.881c-1.606-0.308-3.041-1.047-4.478-1.781
			c0.113-0.102,0.227-0.204,0.34-0.306c1.436,0.509,2.924,0.908,4.104,1.954L213.853,120.881z"/>
		<path fill-rule="evenodd" clip-rule="evenodd" fill="#82CA9D" d="M219.244,134.198c-1.085-0.595-2.171-1.19-3.257-1.785
			c0.125-0.107,0.249-0.215,0.374-0.322c1.146,0.486,2.226,1.089,3.219,1.843C219.51,134.075,219.397,134.163,219.244,134.198z"/>
		<path fill-rule="evenodd" clip-rule="evenodd" fill="#85CBA0" d="M200.207,92.227c0.724,0.406,1.899-0.018,2.188,1.189
			c-0.937-0.308-1.872-0.615-2.807-0.922C199.794,92.405,200.001,92.316,200.207,92.227z"/>
		<path fill-rule="evenodd" clip-rule="evenodd" fill="#78C697" d="M209.413,107.41c0.54,0.139,1.102,0.224,1.612,0.433
			c0.553,0.226,0.624-0.04,0.639-0.466c0.411,0.319,0.24,0.776,0.282,1.183c-0.85-0.294-1.759-0.428-2.53-0.933
			C209.415,107.554,209.414,107.482,209.413,107.41z"/>
		<path fill-rule="evenodd" clip-rule="evenodd" fill="#8DCEA6" d="M227.771,157.058c-0.597-0.339-1.187-0.687-1.63-1.229
			c0.111-0.1,0.224-0.2,0.337-0.299c0.645,0.268,1.178,0.692,1.656,1.191C228.09,156.915,227.966,157.024,227.771,157.058z"/>
		<path fill-rule="evenodd" clip-rule="evenodd" fill="#C4E4D0" d="M203.728,93.443c0.548,0.137,1.131,0.182,1.564,0.611
			c0.016,0.1,0.032,0.199,0.048,0.299C204.878,93.917,203.893,94.408,203.728,93.443z"/>
		<path fill-rule="evenodd" clip-rule="evenodd" fill="#80C99D" d="M209.413,107.41c0.003,0.072,0.004,0.145,0.003,0.217
			c-0.616,0.023-1.149-0.207-1.647-0.543c0.114-0.086,0.229-0.173,0.344-0.259C208.546,107.02,208.979,107.215,209.413,107.41z"/>
		<path fill-rule="evenodd" clip-rule="evenodd" fill="#8CCDA5" d="M213.853,120.881c0,0-0.033-0.134-0.033-0.134
			c0.569-0.121,0.975,0.162,1.34,0.545C214.616,121.495,214.165,121.409,213.853,120.881z"/>
		<path fill-rule="evenodd" clip-rule="evenodd" fill="#77C696" d="M219.244,134.198c0.112-0.088,0.224-0.176,0.336-0.264
			c0.401,0.229,0.803,0.458,1.204,0.687c0.068,0.277,0.025,0.438-0.309,0.294C220.065,134.677,219.655,134.438,219.244,134.198z"/>
		<path fill-rule="evenodd" clip-rule="evenodd" fill="#98D2AE" d="M220.476,134.916c0.104-0.098,0.206-0.196,0.309-0.294
			c0.464,0.14,0.814,0.398,0.929,0.9C221.217,135.491,220.803,135.293,220.476,134.916z"/>
		<path fill-rule="evenodd" clip-rule="evenodd" fill="#88CCA1" d="M227.771,157.058c0.121-0.112,0.242-0.225,0.363-0.337
			c0.412,0.29,0.903,0.494,1.103,1.015c-0.001,0.111-0.057,0.168-0.167,0.17C228.504,157.827,228.165,157.401,227.771,157.058z"/>
		<path fill-rule="evenodd" clip-rule="evenodd" fill="#8BCDA4" d="M229.07,157.906c0.028-0.084,0.085-0.142,0.168-0.171
			c0.627,0.17,1.095,0.479,1.061,1.224C229.847,158.658,229.292,158.476,229.07,157.906z"/>
	</g>
</g>
</svg>
